<?xml version="1.0" standalone="no"?><!DOCTYPE svg PUBLIC "-//W3C//DTD SVG 1.1//EN" "http://www.w3.org/Graphics/SVG/1.1/DTD/svg11.dtd"><svg width="7" height="7" viewBox="0 0 7 7" version="1.1" xmlns="http://www.w3.org/2000/svg" xmlns:xlink="http://www.w3.org/1999/xlink" xml:space="preserve"><path d="M3.493,5.995l-0.064,-0.001l-0.065,-0.002l-0.063,-0.004l-0.064,-0.006l-0.062,-0.007l-0.063,-0.009l-0.062,-0.01l-0.061,-0.012l-0.061,-0.013l-0.06,-0.015l-0.06,-0.016l-0.059,-0.017l-0.058,-0.019l-0.058,-0.021l-0.057,-0.021l-0.056,-0.023l-0.056,-0.025l-0.055,-0.026l-0.055,-0.027l-0.053,-0.028l-0.053,-0.029l-0.052,-0.031l-0.051,-0.032l-0.05,-0.033l-0.05,-0.035l-0.049,-0.035l-0.047,-0.037l-0.047,-0.037l-0.046,-0.039l-0.045,-0.04l-0.044,-0.041l-0.043,-0.042l-0.042,-0.043l-0.041,-0.044l-0.04,-0.045l-0.038,-0.046l-0.038,-0.046l-0.037,-0.048l-0.035,-0.049l-0.034,-0.049l-0.034,-0.051l-0.032,-0.051l-0.03,-0.052l-0.03,-0.053l-0.028,-0.053l-0.027,-0.054l-0.026,-0.056l-0.024,-0.055l-0.023,-0.057l-0.022,-0.057l-0.02,-0.058l-0.019,-0.058l-0.018,-0.059l-0.016,-0.06l-0.015,-0.06l-0.013,-0.061l-0.012,-0.061l-0.01,-0.062l-0.009,-0.062l-0.007,-0.063l-0.006,-0.063l-0.004,-0.064l-0.002,-0.064l-0.001,-0.065l0.001,-0.064l0.002,-0.065l0.004,-0.063l0.006,-0.064l0.007,-0.062l0.009,-0.063l0.01,-0.062l0.012,-0.061l0.013,-0.061l0.015,-0.06l0.016,-0.06l0.018,-0.059l0.019,-0.058l0.02,-0.058l0.022,-0.057l0.023,-0.056l0.024,-0.056l0.026,-0.055l0.027,-0.055l0.028,-0.053l0.03,-0.053l0.03,-0.052l0.032,-0.051l0.034,-0.05l0.034,-0.05l0.035,-0.049l0.037,-0.047l0.038,-0.047l0.038,-0.046l0.04,-0.045l0.041,-0.044l0.042,-0.043l0.043,-0.042l0.044,-0.041l0.045,-0.04l0.046,-0.038l0.047,-0.038l0.047,-0.037l0.049,-0.035l0.05,-0.034l0.05,-0.034l0.051,-0.032l0.052,-0.03l0.053,-0.03l0.053,-0.028l0.055,-0.027l0.055,-0.026l0.056,-0.024l0.056,-0.023l0.057,-0.022l0.058,-0.02l0.058,-0.019l0.059,-0.018l0.06,-0.016l0.06,-0.015l0.061,-0.013l0.061,-0.012l0.062,-0.01l0.063,-0.009l0.062,-0.007l0.064,-0.006l0.063,-0.004l0.065,-0.002l0.064,-0.001l0.065,0.001l0.064,0.002l0.064,0.004l0.063,0.006l0.063,0.007l0.062,0.009l0.062,0.01l0.061,0.012l0.061,0.013l0.06,0.015l0.06,0.016l0.059,0.018l0.058,0.019l0.058,0.02l0.057,0.022l0.057,0.023l0.055,0.024l0.056,0.026l0.054,0.027l0.053,0.028l0.053,0.03l0.052,0.03l0.051,0.032l0.051,0.034l0.049,0.034l0.049,0.035l0.048,0.037l0.046,0.038l0.046,0.038l0.045,0.04l0.044,0.041l0.043,0.042l0.042,0.043l0.041,0.044l0.04,0.045l0.039,0.046l0.037,0.047l0.037,0.047l0.035,0.049l0.035,0.05l0.033,0.05l0.032,0.051l0.031,0.052l0.029,0.053l0.028,0.053l0.027,0.055l0.026,0.055l0.025,0.056l0.023,0.056l0.021,0.057l0.021,0.058l0.019,0.058l0.017,0.059l0.016,0.06l0.015,0.06l0.013,0.061l0.012,0.061l0.01,0.062l0.009,0.063l0.007,0.062l0.006,0.064l0.004,0.063l0.002,0.065l0.001,0.064l-0.001,0.065l-0.002,0.064l-0.004,0.064l-0.006,0.063l-0.007,0.063l-0.009,0.062l-0.01,0.062l-0.012,0.061l-0.013,0.061l-0.015,0.06l-0.016,0.06l-0.017,0.059l-0.019,0.058l-0.021,0.058l-0.021,0.057l-0.023,0.057l-0.025,0.055l-0.026,0.056l-0.027,0.054l-0.028,0.053l-0.029,0.053l-0.031,0.052l-0.032,0.051l-0.033,0.051l-0.035,0.049l-0.035,0.049l-0.037,0.048l-0.037,0.046l-0.039,0.046l-0.04,0.045l-0.041,0.044l-0.042,0.043l-0.043,0.042l-0.044,0.041l-0.045,0.04l-0.046,0.039l-0.046,0.037l-0.048,0.037l-0.049,0.035l-0.049,0.035l-0.051,0.033l-0.051,0.032l-0.052,0.031l-0.053,0.029l-0.053,0.028l-0.054,0.027l-0.056,0.026l-0.055,0.025l-0.057,0.023l-0.057,0.021l-0.058,0.021l-0.058,0.019l-0.059,0.017l-0.06,0.016l-0.06,0.015l-0.061,0.013l-0.061,0.012l-0.062,0.01l-0.062,0.009l-0.063,0.007l-0.063,0.006l-0.064,0.004l-0.064,0.002l-0.065,0.001ZM3.493,5.245l0.046,0l0.045,-0.002l0.045,-0.003l0.044,-0.004l0.044,-0.005l0.044,-0.006l0.043,-0.007l0.043,-0.008l0.042,-0.01l0.042,-0.01l0.042,-0.011l0.041,-0.012l0.041,-0.014l0.04,-0.014l0.04,-0.015l0.039,-0.016l0.039,-0.017l0.039,-0.018l0.038,-0.019l0.037,-0.02l0.037,-0.021l0.037,-0.021l0.035,-0.022l0.036,-0.024l0.034,-0.024l0.035,-0.025l0.033,-0.025l0.033,-0.027l0.032,-0.027l0.032,-0.028l0.031,-0.029l0.03,-0.029l0.029,-0.03l0.029,-0.031l0.028,-0.032l0.027,-0.032l0.027,-0.033l0.025,-0.033l0.025,-0.035l0.024,-0.034l0.024,-0.036l0.022,-0.035l0.021,-0.037l0.021,-0.037l0.02,-0.037l0.019,-0.038l0.018,-0.039l0.017,-0.039l0.016,-0.039l0.015,-0.04l0.014,-0.04l0.014,-0.041l0.012,-0.041l0.011,-0.042l0.01,-0.042l0.01,-0.042l0.008,-0.043l0.007,-0.043l0.006,-0.044l0.005,-0.044l0.004,-0.044l0.003,-0.045l0.002,-0.045l0,-0.046l0,-0.045l-0.002,-0.046l-0.003,-0.044l-0.004,-0.045l-0.005,-0.044l-0.006,-0.043l-0.007,-0.044l-0.008,-0.042l-0.01,-0.043l-0.01,-0.042l-0.011,-0.041l-0.012,-0.042l-0.014,-0.04l-0.014,-0.041l-0.015,-0.04l-0.016,-0.039l-0.017,-0.039l-0.018,-0.039l-0.019,-0.037l-0.02,-0.038l-0.021,-0.037l-0.021,-0.036l-0.022,-0.036l-0.024,-0.035l-0.024,-0.035l-0.025,-0.034l-0.025,-0.034l-0.027,-0.033l-0.027,-0.032l-0.028,-0.031l-0.029,-0.031l-0.029,-0.03l-0.03,-0.03l-0.031,-0.029l-0.032,-0.028l-0.032,-0.027l-0.033,-0.026l-0.033,-0.026l-0.035,-0.025l-0.034,-0.024l-0.036,-0.023l-0.035,-0.023l-0.037,-0.021l-0.037,-0.021l-0.037,-0.02l-0.038,-0.019l-0.039,-0.017l-0.039,-0.018l-0.039,-0.016l-0.04,-0.015l-0.04,-0.014l-0.041,-0.013l-0.041,-0.013l-0.042,-0.011l-0.042,-0.01l-0.042,-0.009l-0.043,-0.009l-0.043,-0.007l-0.044,-0.006l-0.044,-0.005l-0.044,-0.004l-0.045,-0.003l-0.045,-0.001l-0.046,-0.001l-0.045,0.001l-0.046,0.001l-0.044,0.003l-0.045,0.004l-0.044,0.005l-0.043,0.006l-0.044,0.007l-0.042,0.009l-0.043,0.009l-0.042,0.01l-0.041,0.011l-0.042,0.013l-0.04,0.013l-0.041,0.014l-0.04,0.015l-0.039,0.016l-0.039,0.018l-0.039,0.017l-0.037,0.019l-0.038,0.02l-0.037,0.021l-0.036,0.021l-0.036,0.023l-0.035,0.023l-0.035,0.024l-0.034,0.025l-0.034,0.026l-0.033,0.026l-0.032,0.027l-0.031,0.028l-0.031,0.029l-0.03,0.03l-0.03,0.03l-0.029,0.031l-0.028,0.031l-0.027,0.032l-0.026,0.033l-0.026,0.034l-0.025,0.034l-0.024,0.035l-0.023,0.035l-0.023,0.036l-0.021,0.036l-0.021,0.037l-0.02,0.038l-0.019,0.037l-0.017,0.039l-0.018,0.039l-0.016,0.039l-0.015,0.04l-0.014,0.041l-0.013,0.04l-0.013,0.042l-0.011,0.041l-0.01,0.042l-0.009,0.043l-0.009,0.042l-0.007,0.044l-0.006,0.043l-0.005,0.044l-0.004,0.045l-0.003,0.044l-0.001,0.046l-0.001,0.045l0.001,0.046l0.001,0.045l0.003,0.045l0.004,0.044l0.005,0.044l0.006,0.044l0.007,0.043l0.009,0.043l0.009,0.042l0.01,0.042l0.011,0.042l0.013,0.041l0.013,0.041l0.014,0.04l0.015,0.04l0.016,0.039l0.018,0.039l0.017,0.039l0.019,0.038l0.02,0.037l0.021,0.037l0.021,0.037l0.023,0.035l0.023,0.036l0.024,0.034l0.025,0.035l0.026,0.033l0.026,0.033l0.027,0.032l0.028,0.032l0.029,0.031l0.03,0.03l0.03,0.029l0.031,0.029l0.031,0.028l0.032,0.027l0.033,0.027l0.034,0.025l0.034,0.025l0.035,0.024l0.035,0.024l0.036,0.022l0.036,0.021l0.037,0.021l0.038,0.02l0.037,0.019l0.039,0.018l0.039,0.017l0.039,0.016l0.04,0.015l0.041,0.014l0.04,0.014l0.042,0.012l0.041,0.011l0.042,0.01l0.043,0.01l0.042,0.008l0.044,0.007l0.043,0.006l0.044,0.005l0.045,0.004l0.044,0.003l0.046,0.002l0.045,0Z" fill="#000"/></svg>