<svg height="462pt" preserveAspectRatio="xMidYMid meet" viewBox="0 0 462 462" width="462pt" xmlns="http://www.w3.org/2000/svg"><g transform="matrix(.1 0 0 -.1 0 462)"><path d="m3884 4605c-12-8-27-27-33-43-11-26-9-34 13-67 43-63 36-98-46-254-94-180-226-414-327-581-79-132-97-184-68-196 7-2 23-1 34 3s191 169 399 366c207 197 393 366 413 375 34 17 36 20 36 68-1 46-6 59-51 120-58 79-117 127-227 184-85 43-111 48-143 25z"/><path d="m763 4503c-29-11-11-60 55-152 170-239 389-411 523-411 88 0 159 40 174 97 12 50-108 262-181 318-23 18-63 31-141 46-59 11-176 41-260 65s-154 44-155 43c-2 0-9-3-15-6z"/><path d="m2735 4374c-18-18-17-23 32-149 91-232 282-483 393-516 33-10 43-9 65 5 33 22 58 79 57 131-2 57-45 222-77 290-26 53-32 60-89 84-33 14-128 58-209 98s-150 73-152 73-11-7-20-16z"/><path d="m1985 4203c14-60 118-253 181-336 76-101 189-220 253-266 83-59 147-36 182 65 16 45 16 52-3 118-25 94-60 165-106 215-32 35-69 54-261 136-123 52-230 95-238 95-11 0-13-7-8-27z"/><path d="m3950 3525c-38-17-304-74-857-184-650-130-808-158-835-151-18 5-77 16-131 25-103 17-137 11-137-23 0-9 23-67 51-129 39-87 76-207 165-530 63-230 124-432 135-449 43-70 150-144 207-144 18 0 40 11 58 28 25 23 50 31 176 55 81 16 152 25 158 22 16-10 13-430-2-442-7-5-254-58-548-118-294-59-541-110-547-113-21-7-15-39 10-55 13-9 69-30 125-47l101-31 238 55c300 69 614 129 624 119 5-5 10-283 11-618 3-546 5-616 21-670 23-79 46-109 85-113 44-4 67 11 91 61 52 107 74 368 89 1060 6 263 10 340 20 346 14 9 255 35 462 51 153 12 569 12 705 1 111-9 150-1 179 40 21 30 20 63-1 115-29 70-166 143-336 179-116 25-162 20-247-26-70-38-97-45-419-110-190-38-347-69-348-69-2 0-2 102-1 227l3 228 165 27c217 36 251 35 347-3 155-62 228-11 283 200 10 36 70 237 135 446 110 354 121 384 161 437 66 84 62 96-46 168-94 61-271 160-286 160-5 0-34-11-64-25zm-65-209c16-11 17-22 12-87-13-146-136-820-157-859-6-10-22-13-52-11-25 1-122-16-235-43-106-25-195-46-198-46s-5 87-5 194v194l28 6c15 3 107 19 205 36 204 35 254 51 263 86 15 60-19 105-98 129-97 29-133 30-168 5-26-19-196-79-222-80-5 0-8 46-9 103 0 142-10 192-44 227-16 16-25 33-22 37 11 10 587 121 638 122 25 1 54-5 64-13zm-943-395c6-85 6-156 2-161-13-11-482-125-489-119-11 11-122 394-116 401 3 4 121 29 261 56l255 49 38-37 39-37zm6-529 2-201-37-10c-148-39-306-72-313-65-9 10-100 343-100 367 0 11 32 22 113 41 61 14 157 37 212 50s105 23 110 22c6-2 11-80 13-204z"/><path d="m1387 3496c-16-9-43-27-60-42-91-77-959-465-1159-519-100-27-108-31-108-51 0-23 54-40 195-62l129-19 430 199c237 109 437 197 445 196 32-6 21-42-62-201-161-312-387-669-610-966-132-175-347-439-437-536-109-117-140-154-140-170 0-30 40-14 117 47 273 215 615 540 832 790 47 53 89 94 94 91 11-6 2-495-14-743-14-231-73-599-129-817-19-72-19-74 1-148 47-179 144-356 204-371 35-9 78 11 99 47 43 73 48 156 81 1284 9 303 18 601 21 663l6 113 92-88c213-206 361-313 446-321 63-6 74 13 67 111-4 56-13 86-50 161-25 51-63 112-84 135l-38 43-164 24c-89 12-187 28-217 34-60 13-65 19-86 111l-11 46 203 309c111 170 227 335 256 366 55 58 67 94 45 137-13 23-281 152-328 157-23 3-49-1-66-10z"/></g></svg>